<svg xmlns="http://www.w3.org/2000/svg" viewBox="0 0 54.106 53.086">
  <defs>
    <style>
      .cls-1 {
        fill: #27499a;
      }
    </style>
  </defs>
  <g id="_001-taxes" data-name="001-taxes" transform="translate(0 0)">
    <g id="Groupe_93" data-name="Groupe 93">
      <g id="Groupe_92" data-name="Groupe 92">
        <path id="Tracé_218" data-name="Tracé 218" class="cls-1" d="M53.2,18.58H46.892V.885A.894.894,0,0,0,45.99,0H9.018C9,0,8.983.009,8.965.011a.893.893,0,0,0-.241.047.822.822,0,0,0-.078.027A.9.9,0,0,0,8.38.259L.264,8.222a.881.881,0,0,0-.177.259c-.013.027-.021.055-.031.083a.823.823,0,0,0-.046.227c0,.019-.011.036-.011.056V52.2a.894.894,0,0,0,.9.885H53.2a.894.894,0,0,0,.9-.885V19.465A.894.894,0,0,0,53.2,18.58ZM8.116,3.021V7.963H3.079ZM26.151,41.584H12.625V25.658H26.151Zm0-17.7H12.625V20.35H26.151ZM11.723,18.58H6.312a.894.894,0,0,0-.9.885v23a.894.894,0,0,0,.9.885H26.151v7.963H1.8V9.732H9.018a.894.894,0,0,0,.9-.885V1.77H45.088V18.58H11.723ZM7.214,23.889V20.35h3.607v3.539Zm3.607,1.77V41.584H7.214V25.658ZM52.3,51.317H27.955V20.35H52.3Z"/>
      </g>
    </g>
    <g id="Groupe_95" data-name="Groupe 95" transform="translate(29.758 22.119)">
      <g id="Groupe_94" data-name="Groupe 94">
        <path id="Tracé_219" data-name="Tracé 219" class="cls-1" d="M283.839,200H264.9a.894.894,0,0,0-.9.885v7.078a.894.894,0,0,0,.9.885h18.937a.894.894,0,0,0,.9-.885v-7.078A.894.894,0,0,0,283.839,200Zm-.9,7.078H265.8V201.77h17.134Z" transform="translate(-264 -200)"/>
      </g>
    </g>
    <g id="Groupe_97" data-name="Groupe 97" transform="translate(34.443 33.885)">
      <g id="Groupe_96" data-name="Groupe 96" transform="translate(0 0)">
        <path id="Tracé_224" data-name="Tracé 224" class="cls-1" d="M0,0,16.569.151l.016,1.792L.016,1.792Z" transform="matrix(0.591, -0.806, 0.806, 0.591, 0, 13.374)"/>
      </g>
    </g>
    <g id="Groupe_99" data-name="Groupe 99" transform="translate(34.267 34.506)">
      <g id="Groupe_98" data-name="Groupe 98">
        <path id="Tracé_220" data-name="Tracé 220" class="cls-1" d="M306.705,312a2.655,2.655,0,1,0,2.705,2.654A2.683,2.683,0,0,0,306.705,312Zm0,3.539a.885.885,0,1,1,.9-.885A.895.895,0,0,1,306.705,315.539Z" transform="translate(-304 -312)"/>
      </g>
    </g>
    <g id="Groupe_101" data-name="Groupe 101" transform="translate(40.579 42.469)">
      <g id="Groupe_100" data-name="Groupe 100">
        <path id="Tracé_221" data-name="Tracé 221" class="cls-1" d="M362.705,384a2.655,2.655,0,1,0,2.705,2.654A2.683,2.683,0,0,0,362.705,384Zm0,3.539a.885.885,0,1,1,.9-.885A.895.895,0,0,1,362.705,387.539Z" transform="translate(-360 -384)"/>
      </g>
    </g>
    <g id="Groupe_103" data-name="Groupe 103" transform="translate(14.428 4.424)">
      <g id="Groupe_102" data-name="Groupe 102">
        <rect id="Rectangle_1092" data-name="Rectangle 1092" class="cls-1" width="22.544" height="1.77"/>
      </g>
    </g>
    <g id="Groupe_105" data-name="Groupe 105" transform="translate(11.723 8.848)">
      <g id="Groupe_104" data-name="Groupe 104">
        <rect id="Rectangle_1093" data-name="Rectangle 1093" class="cls-1" width="27.955" height="1.77"/>
      </g>
    </g>
  </g>
</svg>
