<svg xmlns="http://www.w3.org/2000/svg" viewBox="0 0 44.45 40.005">
  <defs>
    <style>
      .cls-1 {
        fill: #27499a;
      }
    </style>
  </defs>
  <path id="_001-coins" data-name="001-coins" class="cls-1" d="M44.442,16.335c-.073-1.268-1.581-2.258-4.6-3.014a1.67,1.67,0,0,0,.159-.693V7.445h-.013C39.727,3.127,22.035,3,20,3S.278,3.127.013,7.445H0v.1H0V12.63c0,1.408,1.82,2.509,4.523,3.329a1.625,1.625,0,0,0-.067.376H4.445v.1h0v5.08c-2.911.75-4.366,1.726-4.438,2.973H0v.1H0v5.089c0,.98.886,1.811,2.332,2.5a1.632,1.632,0,0,0-.1.461H2.223v.1h0v5.089c.006,2.464,5.554,3.994,11.719,4.708a.68.68,0,0,0,.135.027c.014,0,.026-.007.04-.008,1.188.134,2.4.239,3.591.313a.612.612,0,0,0,.073.015c.014,0,.025-.007.039-.008,1.517.092,3.01.139,4.406.139s2.889-.047,4.406-.139c.013,0,.025.008.039.008s.048-.013.073-.015c1.195-.075,2.4-.179,3.591-.313.014,0,.026.007.04.007a.681.681,0,0,0,.135-.027c6.164-.714,11.712-2.245,11.719-4.709V32.633h-.012c-.052-.908-.826-1.666-2.355-2.3a1.656,1.656,0,0,0,.144-.667V24.825c2.66-.818,4.441-1.912,4.445-3.307V16.335Zm-6,13.573-.253.222a6.628,6.628,0,0,1-1.89,1.022V27.619A11.025,11.025,0,0,0,38.523,26.6v3.066A.471.471,0,0,1,38.443,29.908ZM21.874,33.35l-.326.007c-.264.005-.536.007-.8.009v-3.7l.611-.009.118,0q1.119-.021,2.234-.071v3.7l-.479.022C22.783,33.325,22.332,33.339,21.874,33.35Zm-3.235.01q-.509-.009-1.013-.024l-.124,0q-.606-.02-1.2-.05v-3.7q1.113.052,2.234.071l.117,0,.611.009v3.7l-.43,0ZM5.258,31.672l-.072-.021V28.072c.692.187,1.436.357,2.223.512V32.2q-1.02-.217-1.879-.452C5.439,31.722,5.346,31.7,5.258,31.672Zm15.615,6.135.611.009v3.7q-1.536-.014-2.963-.086v-3.7q1.113.052,2.234.071Zm2.822,0q1.119-.021,2.234-.071v3.7q-1.427.07-2.963.086v-3.7l.611-.009Zm5.939-.335v3.679q-1.068.112-2.223.195V37.649C28.162,37.6,28.9,37.54,29.633,37.47Zm1.482-.16q1.146-.138,2.223-.313v3.637q-1.047.184-2.223.339Zm3.7-.577c.787-.155,1.531-.325,2.222-.512V39.8c-.66.19-1.4.375-2.222.549Zm-25.188,0v3.616c-.819-.174-1.562-.359-2.223-.549V36.22C8.1,36.407,8.844,36.578,9.631,36.732ZM11.113,37q1.076.174,2.223.313v3.664q-1.175-.154-2.223-.339Zm3.7.472c.729.07,1.471.13,2.223.18v3.695q-1.155-.081-2.223-.195Zm-1.838-4.43-.225-.023L12.594,33V29.321c.729.07,1.471.13,2.223.18v3.692C14.194,33.148,13.579,33.1,12.979,33.039ZM11.113,29.16v3.664q-1.175-.154-2.223-.339V28.848Q9.966,29.022,11.113,29.16Zm14.569,4-.493.037V29.5c.751-.05,1.494-.109,2.223-.18V33c-.458.048-.926.093-1.407.133Zm3.211-.333V29.16q1.146-.138,2.222-.313v3.637Q30.068,32.67,28.893,32.824Zm3.7-4.241c.787-.155,1.531-.325,2.222-.512V31.65c-.66.19-1.4.375-2.222.549ZM22.466,25.2c-.557-.014-1.1-.036-1.637-.061l-.086,0v-3.7q1.113.052,2.234.071l.117,0,.611.009v3.7c-.361,0-.725-.005-1.076-.013ZM5.186,14.612V11.033c.692.187,1.436.357,2.223.512v3.616L7.134,15.1c-.394-.087-.779-.177-1.146-.273C5.708,14.759,5.442,14.685,5.186,14.612ZM18.65,12.618l.611.009v3.7c-1-.01-1.988-.036-2.963-.084v-3.7q1.113.052,2.234.071Zm2.822,0q1.119-.021,2.234-.071v3.7c-.126.006-.247.015-.373.021H23.3c-.5.022-1,.039-1.517.05l-.24.005c-.264.005-.533.006-.8.009v-3.7l.611-.009Zm16.881.372-.021,0-.27.21a7.205,7.205,0,0,1-1.762.91V10.579A11.025,11.025,0,0,0,38.523,9.56v3.066A.582.582,0,0,1,38.354,12.988Zm-9.461,2.793v-3.66q1.146-.138,2.222-.313V15.44C30.413,15.565,29.673,15.679,28.893,15.781Zm3.7-.626v-3.61c.787-.155,1.531-.325,2.222-.512V14.6C34.155,14.8,33.408,14.982,32.6,15.155Zm-5.186-2.874v3.675q-1.073.113-2.223.2V12.461C25.94,12.412,26.682,12.352,27.411,12.281ZM12.594,15.957V12.281c.729.07,1.471.13,2.223.18v3.688C14.063,16.095,13.319,16.033,12.594,15.957Zm-1.482-3.836v3.66c-.147-.019-.3-.035-.445-.055l-.279-.041q-.642-.092-1.257-.2l-.242-.043V11.809Q9.966,11.983,11.113,12.121Zm7.965,12.911-.3-.022q-.711-.056-1.389-.123l-.29-.03-.059-.007V21.171c.729.07,1.471.13,2.222.18v3.692Zm-4.895-.553c-.293-.047-.569-.1-.848-.146V20.7q1.076.174,2.223.313v3.664c-.453-.06-.9-.122-1.323-.189Zm-2.33-4.044v3.61q-1.228-.263-2.223-.556V19.922C10.323,20.109,11.067,20.28,11.853,20.434Zm-3.7-.965v3.52a4.622,4.622,0,0,1-2.16-1.318l-.05-.083a.468.468,0,0,1-.013-.07V18.45A11.025,11.025,0,0,0,8.149,19.469Zm17.768,2.037q1.119-.021,2.234-.071v3.7c-.973.048-1.963.075-2.963.085v-3.7l.611-.009Zm9.574,2.843c-.325.056-.653.112-.99.163-.193.03-.391.058-.59.086s-.382.05-.573.074v-3.66q1.146-.138,2.222-.313v3.637Zm-5.016.633c-.276.023-.562.038-.842.058V21.351c.751-.05,1.494-.109,2.223-.18v3.675c-.43.045-.86.09-1.3.127Zm8.466-1.389c-.369.1-.759.2-1.158.293-.184.043-.373.086-.565.127l-.176.036V20.435c.787-.155,1.531-.325,2.223-.512V23.5Zm4.019-7.209c-.068.5-1.208,1.172-3.243,1.8h0A49.726,49.726,0,0,1,27.8,19.965c-.266.011-.531.022-.8.031l-.67.02c-.613.013-1.236.023-1.877.023s-1.264-.01-1.877-.024c-.225-.005-.447-.013-.67-.02-.272-.008-.537-.02-.8-.031a49.72,49.72,0,0,1-11.92-1.781h0C7.159,17.56,6.021,16.9,5.937,16.4a.174.174,0,0,1,.013-.044c.05.013.107.023.158.036.29.069.587.136.889.2,1.472.317,3.1.577,4.841.776.006,0,.01,0,.016,0h0c1.184.135,2.412.241,3.673.316.01,0,.018.005.027.005s.009,0,.014,0q1.361.08,2.757.113c.57.014,1.129.021,1.674.021.389,0,.788,0,1.19-.012A56.73,56.73,0,0,0,35.036,16.09c.16-.045.316-.092.47-.139.094-.029.19-.057.282-.086.268-.086.525-.174.773-.266l.127-.049c.21-.079.411-.162.6-.245l.167-.073c.205-.093.4-.187.587-.286.083-.044.155-.089.233-.133s.178-.1.26-.156c.047-.03.1-.058.147-.087C42,15.29,42.876,16.076,42.96,16.383ZM20,4.482c12.216,0,18.394,1.923,18.51,3.027-.09.5-1.227,1.162-3.24,1.785h0a49.726,49.726,0,0,1-11.92,1.781c-.266.011-.531.022-.8.031l-.67.02c-.613.014-1.236.024-1.877.024s-1.264-.01-1.877-.024c-.225-.005-.447-.013-.67-.02-.272-.008-.537-.02-.8-.031A49.72,49.72,0,0,1,4.733,9.293h0C2.719,8.671,1.582,8.01,1.493,7.509,1.608,6.4,7.787,4.482,20,4.482ZM1.482,12.628V9.56A11.025,11.025,0,0,0,3.7,10.579v3.547C2.263,13.587,1.483,13.045,1.482,12.628ZM5.07,22.88c.011.012.028.022.039.034,1.014,1.024,3.114,1.828,5.729,2.428l.184.041q.288.064.584.126A57.136,57.136,0,0,0,20,26.574H20q1.5.088,3.077.117c.464.01.92.016,1.366.016.511,0,1.036-.006,1.569-.019.969-.02,1.924-.06,2.866-.115l.01,0c.007,0,.012,0,.019,0a57.3,57.3,0,0,0,8.552-1.095,13.421,13.421,0,0,1-2.191.856h0a51.122,51.122,0,0,1-12.8,1.814l-.5.016-.55.011c-.466.007-.935.014-1.416.014-.642,0-1.264-.01-1.877-.024-.225-.005-.447-.013-.67-.02-.272-.008-.537-.02-.8-.031a49.72,49.72,0,0,1-11.92-1.781h0c-2.037-.63-3.177-1.3-3.243-1.8C1.572,24.252,2.321,23.554,5.07,22.88ZM1.482,29.667V26.6A11.025,11.025,0,0,0,3.7,27.619v3.533l-.423-.164L3.272,31C2.109,30.514,1.483,30.04,1.482,29.667ZM3.7,37.816V34.748a11.025,11.025,0,0,0,2.223,1.019v3.547C4.486,38.775,3.706,38.233,3.7,37.816Zm34.819,1.5V35.769a11.025,11.025,0,0,0,2.223-1.019v3.066C40.745,38.232,39.964,38.774,38.523,39.315Zm2.213-6.625c-.081.5-1.219,1.167-3.242,1.792h0a49.726,49.726,0,0,1-11.92,1.781c-.266.011-.531.022-.8.031l-.67.02c-.613.013-1.236.023-1.877.023s-1.265-.01-1.879-.024c-.223-.005-.443-.013-.663-.02-.273-.009-.54-.02-.808-.031a49.727,49.727,0,0,1-11.92-1.781h0C5,33.876,3.864,33.233,3.722,32.737c.221.077.45.152.685.225l.071.021q.3.092.614.179l.24.066c.119.032.24.062.362.093a54.047,54.047,0,0,0,9.86,1.4h.006c1.148.068,2.321.11,3.506.124.316.006.629.009.936.009.408,0,.826-.005,1.249-.013,1.081-.018,2.148-.058,3.191-.12h.006l.01,0c1.271-.076,2.5-.185,3.682-.321l.013,0c.016,0,.03-.008.046-.01,1.316-.152,2.563-.339,3.721-.556.239-.044.473-.089.706-.136l.156-.032a19.906,19.906,0,0,0,5.381-1.751c.071-.039.138-.079.205-.118s.161-.1.237-.149.153-.09.219-.137C40.285,32.038,40.688,32.5,40.736,32.69Zm.01-9.674V19.47a11.025,11.025,0,0,0,2.222-1.019v3.066C42.968,21.933,42.187,22.476,40.746,23.017Z" transform="translate(0 -3)"/>
</svg>
