<svg xmlns="http://www.w3.org/2000/svg" viewBox="0 0 90.409 79.073">
  <defs>
    <style>
      .cls-1 {
        fill: #27499a;
      }
    </style>
  </defs>
  <g id="_002-home" data-name="002-home" transform="translate(0 0)">
    <g id="Groupe_107" data-name="Groupe 107">
      <g id="Groupe_106" data-name="Groupe 106" transform="translate(0 0)">
        <path id="Tracé_222" data-name="Tracé 222" class="cls-1" d="M89.446,59.029,46.591,28.243a2.385,2.385,0,0,0-2.775,0L.961,59.029A2.277,2.277,0,0,0,.453,62.25a2.379,2.379,0,0,0,3.283.5L45.2,32.959,86.671,62.748a2.379,2.379,0,0,0,3.283-.5A2.276,2.276,0,0,0,89.446,59.029Z" transform="translate(0.001 -27.798)"/>
      </g>
    </g>
    <g id="Groupe_109" data-name="Groupe 109" transform="translate(9.968 35.472)">
      <g id="Groupe_108" data-name="Groupe 108">
        <path id="Tracé_223" data-name="Tracé 223" class="cls-1" d="M124.575,232.543a2.327,2.327,0,0,0-2.349,2.3v36.686H103.434V251.508a11.748,11.748,0,0,0-23.492,0v20.026H61.15V234.848a2.349,2.349,0,0,0-4.7,0v38.991a2.327,2.327,0,0,0,2.349,2.3h23.49a2.33,2.33,0,0,0,2.34-2.125,1.7,1.7,0,0,0,.009-.179v-22.33a7.049,7.049,0,0,1,14.1,0v22.33a1.658,1.658,0,0,0,.009.177,2.33,2.33,0,0,0,2.34,2.127h23.49a2.327,2.327,0,0,0,2.349-2.3V234.848A2.328,2.328,0,0,0,124.575,232.543Z" transform="translate(-56.452 -232.543)"/>
      </g>
    </g>
  </g>
</svg>
