<svg xmlns="http://www.w3.org/2000/svg" viewBox="0 0 34.922 41.915">
  <defs>
    <style>
      .cls-1 {
        fill: #27499a;
      }
    </style>
  </defs>
  <path id="Tracé_204" data-name="Tracé 204" class="cls-1" d="M77.635,14.941V13.713A13.728,13.728,0,0,0,63.922,0H61.292A14.331,14.331,0,0,0,47.165,12.028H42.713v7.7h4.27v2.46h-4.27v7.7h4.452A14.331,14.331,0,0,0,61.292,41.915h2.631A13.728,13.728,0,0,0,77.635,28.2V26.975h-7.7V28.2a6.024,6.024,0,0,1-6.017,6.017H61.292a6.642,6.642,0,0,1-6.208-4.333h7.138v-7.7H54.678v-2.46h7.543v-7.7H55.084A6.642,6.642,0,0,1,61.292,7.7h2.631a6.024,6.024,0,0,1,6.017,6.017v1.228Zm-13.713-9.7H61.292A9.1,9.1,0,0,0,52.3,13.092l-.188,1.392h7.649v2.787H52.222v7.372h7.543v2.787H52.116l.188,1.392a9.1,9.1,0,0,0,8.988,7.853h2.631a8.486,8.486,0,0,0,8.384-7.245h2.806a11.273,11.273,0,0,1-11.19,10.029H61.292a11.871,11.871,0,0,1-11.815-10.9l-.09-1.13H45.169V24.644h4.27V17.272h-4.27V14.484h4.218l.09-1.13a11.871,11.871,0,0,1,11.815-10.9h2.631a11.273,11.273,0,0,1,11.19,10.029H72.307A8.486,8.486,0,0,0,63.922,5.239Z" transform="translate(-42.713)"/>
</svg>
