<svg xmlns="http://www.w3.org/2000/svg" viewBox="0 0 45.664 28.252">
  <defs>
    <style>
      .cls-1 {
        fill: #27499a;
      }
    </style>
  </defs>
  <path id="Tracé_223" data-name="Tracé 223" class="cls-1" d="M100.594,232.543a1.508,1.508,0,0,0-1.522,1.493v23.771H86.9V244.832a7.613,7.613,0,0,0-15.222,0v12.976H59.5V234.037a1.522,1.522,0,0,0-3.044,0V259.3a1.508,1.508,0,0,0,1.522,1.493H73.2a1.51,1.51,0,0,0,1.516-1.377,1.1,1.1,0,0,0,.006-.116v-14.47a4.568,4.568,0,0,1,9.134,0V259.3a1.072,1.072,0,0,0,.006.115,1.51,1.51,0,0,0,1.516,1.379h15.221a1.508,1.508,0,0,0,1.522-1.493V234.037A1.508,1.508,0,0,0,100.594,232.543Z" transform="translate(-56.452 -232.543)"/>
</svg>
