<svg xmlns="http://www.w3.org/2000/svg" viewBox="0 0 36.191 38.777">
  <defs>
    <style>
      .cls-1 {
        fill: #27499a;
      }
    </style>
  </defs>
  <g id="_003-calendar" data-name="003-calendar" transform="translate(-0.001 0)">
    <path id="Tracé_202" data-name="Tracé 202" class="cls-1" d="M37.545,2.585H33.021V.646A.646.646,0,0,0,32.375,0H27.851A.646.646,0,0,0,27.2.646V2.585H12.987V.646A.646.646,0,0,0,12.34,0H7.817A.646.646,0,0,0,7.17.646V2.585H2.646A.646.646,0,0,0,2,3.231v34.9a.646.646,0,0,0,.646.646h34.9a.646.646,0,0,0,.646-.646V3.231A.646.646,0,0,0,37.545,2.585ZM28.5,1.293h3.231V5.17H28.5V1.293Zm-20.035,0h3.231V5.17H8.463V1.293ZM3.293,3.878H7.17V5.817a.646.646,0,0,0,.646.646H12.34a.646.646,0,0,0,.646-.646V3.878H27.2V5.817a.646.646,0,0,0,.646.646h4.524a.646.646,0,0,0,.646-.646V3.878H36.9V9.694H3.293Zm0,33.607v-26.5H36.9v26.5Z" transform="translate(-2)"/>
    <path id="Tracé_203" data-name="Tracé 203" class="cls-1" d="M28.45,23H11V41.742H35.559V23H28.45Zm-4.524,1.293H28.45v4.524H23.926Zm4.524,10.34H23.926V30.109H28.45Zm-10.34-4.524h4.524v4.524H18.109Zm0-5.817h4.524v4.524H18.109Zm-5.817,0h4.524v4.524H12.293Zm0,5.817h4.524v4.524H12.293Zm4.524,10.34H12.293V35.926h4.524Zm5.817,0H18.109V35.926h4.524Zm5.817,0H23.926V35.926H28.45Zm5.817,0H29.742V35.926h4.524Zm0-5.817H29.742V30.109h4.524Zm0-10.34v4.524H29.742V24.293Z" transform="translate(-5.183 -8.136)"/>
  </g>
</svg>
