<svg id="icon" xmlns="http://www.w3.org/2000/svg" viewBox="0 0 50.882 46.844">
  <defs>
    <style>
      .cls-1 {
        fill: #26499b;
      }
    </style>
  </defs>
  <path id="Tracé_384" data-name="Tracé 384" class="cls-1" d="M21.084,26.534H7.76a1.01,1.01,0,0,1-.636-.254L.318,20.205A1.035,1.035,0,0,1,0,19.474a.911.911,0,0,1,.318-.7l6.805-5.851A.866.866,0,0,1,7.76,12.7H21.084a.954.954,0,1,1,0,1.908H8.141l-5.724,4.9,5.724,5.12H21.116a.937.937,0,0,1,.954.954A1.007,1.007,0,0,1,21.084,26.534Z" transform="translate(0 -8.661)"/>
  <path id="Tracé_385" data-name="Tracé 385" class="cls-1" d="M100.85,64.034H85.586a.954.954,0,1,1,0-1.908H100.5l5.724-4.9-5.724-5.12H85.554a.954.954,0,0,1,0-1.908h15.265a1.01,1.01,0,0,1,.636.254l6.805,6.074a1.035,1.035,0,0,1,.318.731.911.911,0,0,1-.318.7l-6.805,5.851A1,1,0,0,1,100.85,64.034Z" transform="translate(-57.696 -34.236)"/>
  <path id="Tracé_386" data-name="Tracé 386" class="cls-1" d="M65.777,46.843H48.254a.937.937,0,0,1-.954-.954c0-2.544,2.385-4.8,5.979-5.724V3.721a3.737,3.737,0,0,1,7.473,0V40.133c3.625.954,5.979,3.18,5.979,5.724A.964.964,0,0,1,65.777,46.843ZM49.431,44.935h15.2c-.6-1.367-2.512-2.576-5.025-3.085a.95.95,0,0,1-.763-.922V3.721a1.833,1.833,0,0,0-1.813-1.813,1.812,1.812,0,0,0-1.813,1.813V40.9a.925.925,0,0,1-.763.922C51.911,42.359,50.035,43.536,49.431,44.935Z" transform="translate(-32.258)"/>
</svg>
