<svg xmlns="http://www.w3.org/2000/svg" viewBox="0 0 44.748 44.988">
  <defs>
    <style>
      .cls-1 {
        fill: #26499b;
      }
    </style>
  </defs>
  <g id="Asset_1" data-name="Asset 1" transform="translate(0.021 0.031)">
    <path id="Tracé_376" data-name="Tracé 376" class="cls-1" d="M9.965,9.4h0l1.6,1.6h0a8.616,8.616,0,0,0,6.122,2.534,8.868,8.868,0,0,0,1.742-.174,17.446,17.446,0,0,1,3.6-.341l3.048,3.836.013.014c.005.006.009.013.015.019a4.636,4.636,0,0,0,2.784,1.524h.035a2.422,2.422,0,0,0,.4.034,2.526,2.526,0,0,0,1.045-.228,4.746,4.746,0,0,0,2.006.814h.013a2.641,2.641,0,0,0,.426.035,2.52,2.52,0,0,0,1.158-.279,3.287,3.287,0,0,0,3.486.406l.02-.009.03-.014h0c.023-.011.045-.023.067-.037l.008,0,.013-.009a3.287,3.287,0,0,0,1.489-2.181,3.206,3.206,0,0,0-.635-2.531.013.013,0,0,0,0,0L30.462,3.331h0a5.587,5.587,0,0,0-5.053-2.3h0l-5.936.6h0A2.165,2.165,0,0,1,17.832,1.1l-.5-.47-.01-.009-.01-.01a2.449,2.449,0,0,0-1.887-.629,2.579,2.579,0,0,0-1.774.992h0L9.738,6.138h0A2.473,2.473,0,0,0,9.964,9.4ZM29.44,13.035l3.171,4.128a2.786,2.786,0,0,1-1.584-.867l-2.19-2.921A2.948,2.948,0,0,0,29.44,13.035Zm-2.929.374,2.282,3.05a2.767,2.767,0,0,1-1.258-.8l-1.923-2.418Q26.061,13.313,26.51,13.408ZM15.61,1.861a.571.571,0,0,1,.44.154l.5.472.011.009.01.009A4.058,4.058,0,0,0,19.264,3.53c.131,0,.263-.007.394-.019h0l5.934-.6h0a3.69,3.69,0,0,1,3.34,1.524h0l7.991,11.069.008.009.009.013a1.358,1.358,0,0,1,.3,1.064,1.419,1.419,0,0,1-.6.913,1.387,1.387,0,0,1-1.681-.39l-4.4-5.732a2.967,2.967,0,0,0-1.5-3.345h0a11.734,11.734,0,0,0-7.569-1.5A.943.943,0,1,0,21.744,8.4a9.843,9.843,0,0,1,6.349,1.258l.016.009.008.005a1.1,1.1,0,0,1,.575,1.343,1.062,1.062,0,0,1-1.258.666h0a19.128,19.128,0,0,0-8.374-.174A6.773,6.773,0,0,1,12.9,9.668h0l-1.6-1.6a.6.6,0,0,1-.063-.792h0l3.913-5.168h0A.692.692,0,0,1,15.61,1.861Z" transform="translate(-8.669 0)"/>
    <path id="Tracé_377" data-name="Tracé 377" class="cls-1" d="M43.937,293.507h0L38.885,288.4h0a12.068,12.068,0,0,0-10.952-3.347,25.151,25.151,0,0,1-5.423.482L18.1,280.009l-.016-.018-.014-.018a6.312,6.312,0,0,0-3.769-2.112h-.045a3.343,3.343,0,0,0-2.042.311,6.263,6.263,0,0,0-2.868-1.219H9.334a3.459,3.459,0,0,0-2.327.446,4.393,4.393,0,0,0-4.826-.657l-.011.005-.011.006c-.014.007-.028.016-.042.023s-.026.013-.039.021l-.009.006-.015.01A4.409,4.409,0,0,0,.864,283.2l0,.006,11.415,15.811h0a7.718,7.718,0,0,0,6.241,3.185q.377,0,.751-.037h0l8.478-.857a3.363,3.363,0,0,1,2.551.847h0l1.227,1.085h0a2.633,2.633,0,0,0,1.746.665,2.565,2.565,0,0,0,1.372-.4l.07-.043,8.822-5.957h0a2.682,2.682,0,0,0,1.171-1.93A2.589,2.589,0,0,0,43.937,293.507Zm-30.491-7.821-5.031-6.6A1.321,1.321,0,0,1,9,279.052H9a3.933,3.933,0,0,1,2.482,1.367l3.338,4.479a3.944,3.944,0,0,0-1.377.789Zm4.07-.749-3.719-4.99a.715.715,0,0,1,.121.014h.015l.014,0a4.162,4.162,0,0,1,2.5,1.4l3.148,3.944Q18.546,285.166,17.516,284.937Zm-3.5,12.83L2.6,281.959s-.006-.008-.009-.011l-.009-.013a2.316,2.316,0,0,1-.427-1.8,2.264,2.264,0,0,1,1-1.486,2.251,2.251,0,0,1,2.727.655l6.358,8.336a4.09,4.09,0,0,0,2.024,4.528h0a16.481,16.481,0,0,0,10.648,2.111,1.069,1.069,0,1,0-.3-2.117,14.355,14.355,0,0,1-9.263-1.836l-.014-.008-.014-.009a1.928,1.928,0,0,1-.974-2.264,1.8,1.8,0,0,1,2.13-1.153h0l.155.037.027.006a27.276,27.276,0,0,0,5.078.712,1.03,1.03,0,0,0,.44.017q.4.011.808.012a27.263,27.263,0,0,0,5.358-.529,9.937,9.937,0,0,1,9.016,2.758h0l5.049,5.106h0a.5.5,0,0,1,.172.363.549.549,0,0,1-.241.366h0L33.525,301.7h0a.458.458,0,0,1-.574-.056h0l-1.227-1.084h0a5.507,5.507,0,0,0-4.179-1.375h0l-8.478.855a5.573,5.573,0,0,1-5.05-2.273Z" transform="translate(0 -258.953)"/>
  </g>
</svg>
