<svg xmlns="http://www.w3.org/2000/svg" viewBox="0 0 16.608 12.588">
  <defs>
    <style>
      .cls-1 {
        fill: white;
        stroke: white;
        stroke-width: 0.5px;
      }
    </style>
  </defs>
  <path id="Tracé_232" data-name="Tracé 232" class="cls-1" d="M14.54,65.286V62.379a1.575,1.575,0,0,0-1.6-1.779H3.118a1.565,1.565,0,0,0-1.6,1.779v2.907A1.765,1.765,0,0,0,0,67.275v2.257a.654.654,0,0,0,.62.689H.827V72a.654.654,0,0,0,.62.689h.586A.654.654,0,0,0,2.653,72V70.2h10.8V72a.654.654,0,0,0,.62.689h.586a.654.654,0,0,0,.62-.689V70.2h.207a.654.654,0,0,0,.62-.689V67.275A1.834,1.834,0,0,0,14.54,65.286ZM2.1,62.379h.034c0-.9.534-1.09.982-1.09h9.82c.448,0,.982.191.982,1.09v2.888h-.465V63.622a.654.654,0,0,0-.62-.689H9.044a.654.654,0,0,0-.62.689v1.645H7.7V63.622a.654.654,0,0,0-.62-.689H3.29a.654.654,0,0,0-.62.689v1.645H2.1Zm10.733,1.243v1.645H9.044V63.622h3.79Zm-5.72,0v1.645H3.325V63.622h3.79ZM2.016,72H1.43V70.2h.586Zm12.61,0H14.04V70.2h.586Zm.81-2.467H.6V68.519H15.436Zm0-1.7H.6v-.555c0-1.148.758-1.32,1.189-1.32H14.247c.448,0,1.189.172,1.189,1.32v.555Z" transform="translate(0.25 -60.35)"/>
</svg>
