<svg xmlns="http://www.w3.org/2000/svg" viewBox="0 0 15.699 17.375">
  <defs>
    <style>
      .cls-1, .cls-2 {
        fill: #729ad0;
      }

      .cls-1 {
        stroke: #729ad0;
      }
    </style>
  </defs>
  <g id="_001-plans" data-name="001-plans" transform="translate(0 0.5)">
    <g id="Groupe_112" data-name="Groupe 112" transform="translate(2.966)">
      <g id="Groupe_111" data-name="Groupe 111">
        <path id="Tracé_228" data-name="Tracé 228" class="cls-1" d="M111.886,1.48a.274.274,0,0,0,.259-.287v-.9A.274.274,0,0,0,111.886,0H100.171a.274.274,0,0,0-.259.287V13.294a.274.274,0,0,0,.259.287h11.715a.274.274,0,0,0,.259-.287V2.15a.26.26,0,1,0-.518,0V7.075H110.6a.289.289,0,0,0,0,.575h1.028v5.357h-7.4V11.616a.26.26,0,1,0-.518,0v1.391H100.43V.575h3.283V9.547a.26.26,0,1,0,.518,0V7.65h4.608a.289.289,0,0,0,0-.575h-4.608V.575h7.4v.617A.274.274,0,0,0,111.886,1.48Z" transform="translate(-99.912)"/>
      </g>
    </g>
    <g id="Groupe_114" data-name="Groupe 114" transform="translate(0)">
      <g id="Groupe_113" data-name="Groupe 113">
        <path id="Tracé_229" data-name="Tracé 229" class="cls-2" d="M2.187,1.659,1.333.136a.246.246,0,0,0-.44,0L.039,1.659a.315.315,0,0,0-.007.291A.256.256,0,0,0,.259,2.1h.6V3.3a.274.274,0,0,0,.259.287A.274.274,0,0,0,1.372,3.3V2.1h.6a.256.256,0,0,0,.226-.148A.315.315,0,0,0,2.187,1.659ZM.725,1.523,1.113.831l.388.692Z" transform="translate(0 0)"/>
      </g>
    </g>
    <g id="Groupe_116" data-name="Groupe 116" transform="translate(0 3.779)">
      <g id="Groupe_115" data-name="Groupe 115">
        <path id="Tracé_230" data-name="Tracé 230" class="cls-2" d="M2.194,122.515a.256.256,0,0,0-.226-.148h-.6V114.95a.274.274,0,0,0-.259-.287.274.274,0,0,0-.259.287v7.417h-.6a.256.256,0,0,0-.226.148.315.315,0,0,0,.007.291l.854,1.523a.246.246,0,0,0,.44,0l.854-1.523A.315.315,0,0,0,2.194,122.515Zm-1.081,1.119-.388-.692H1.5Z" transform="translate(0 -114.663)"/>
      </g>
    </g>
    <g id="Groupe_118" data-name="Groupe 118" transform="translate(2.966 14.403)">
      <g id="Groupe_117" data-name="Groupe 117">
        <path id="Tracé_231" data-name="Tracé 231" class="cls-2" d="M112.023,438l-1.372-.948a.237.237,0,0,0-.263-.007.294.294,0,0,0-.133.251v.661H101.8v-.661a.294.294,0,0,0-.133-.251.237.237,0,0,0-.263.007l-1.372.948a.3.3,0,0,0,0,.488l1.372.948a.237.237,0,0,0,.262.007.294.294,0,0,0,.133-.251v-.661h8.454v.661a.294.294,0,0,0,.133.251.237.237,0,0,0,.263-.007l1.372-.948a.3.3,0,0,0,0-.488Zm-10.739.675-.623-.431.623-.431Zm9.489,0v-.862l.623.431Z" transform="translate(-99.912 -437.005)"/>
      </g>
    </g>
  </g>
</svg>
