<svg id="Pinplace_icon" data-name="Pinplace icon" xmlns="http://www.w3.org/2000/svg" viewBox="0 0 45.729 66.381">
  <defs>
    <style>
      .cls-1 {
        fill: #729ad0;
      }
    </style>
  </defs>
  <path id="Facebook_Places" class="cls-1" d="M111.554,16.522a20.683,20.683,0,0,0-1.071-2.655A22.313,22.313,0,0,0,89.461,0C79.429,0,68.38,6.727,66.9,20.592v2.833c0,.118.041,1.18.1,1.711.827,6.608,6.041,13.631,9.935,20.239,4.19,7.08,8.537,14.044,12.844,21.006,2.656-4.543,5.3-9.146,7.9-13.571.707-1.3,1.528-2.6,2.236-3.836.472-.825,1.374-1.651,1.786-2.419,4.189-7.67,10.933-15.4,10.933-23.012V20.416A23.55,23.55,0,0,0,111.554,16.522ZM89.645,30.742a8.116,8.116,0,0,1-7.77-5.547,7.694,7.694,0,0,1-.218-2.066V21.3c0-5.191,4.408-7.552,8.242-7.552a8.357,8.357,0,0,1,8.372,8.5A8.571,8.571,0,0,1,89.645,30.742Z" transform="translate(-66.905)"/>
</svg>
