<svg xmlns="http://www.w3.org/2000/svg" viewBox="0 0 19.075 21.8">
  <defs>
    <style>
      .cls-1 {
        fill: #333;
      }
    </style>
  </defs>
  <path id="Tracé_369" data-name="Tracé 369" class="cls-1" d="M49.9,12.549a2.967,2.967,0,0,0-1.915-.451,15.872,15.872,0,0,0-2.3.169,5.855,5.855,0,0,1-1.068-.738,7.8,7.8,0,0,1-1.928-2.993c.028-.109.051-.2.073-.3a19.347,19.347,0,0,0,.339-3.506,1.023,1.023,0,0,0-.06-.251l-.04-.1a.83.83,0,0,0-.757-.579l-.226-.007H42a.855.855,0,0,0-.873.549c-.28,1.031.009,2.574.532,4.572l-.134.325c-.374.913-.844,1.832-1.258,2.643l-.054.105c-.436.852-.831,1.576-1.189,2.189l-.37.2c-.027.014-.661.35-.81.439a4.519,4.519,0,0,0-2.236,2.287.563.563,0,0,0,.213.622l.358.18a1.078,1.078,0,0,0,.487.117c.9,0,1.942-1.119,3.378-3.627a33.653,33.653,0,0,1,5.2-1.237,8.958,8.958,0,0,0,3.792,1.2,1.773,1.773,0,0,0,.446-.049.758.758,0,0,0,.443-.3,1.6,1.6,0,0,0,.177-1.083A.724.724,0,0,0,49.9,12.549ZM36.476,17.33a6.262,6.262,0,0,1,1.771-2.119c.06-.049.209-.188.345-.317A6.373,6.373,0,0,1,36.476,17.33Zm5.68-13.079c.289,0,.453.728.467,1.41a2.891,2.891,0,0,1-.344,1.516,7.4,7.4,0,0,1-.243-1.893S42.023,4.251,42.156,4.251Zm-1.694,9.32c.2-.36.411-.74.624-1.143a21.762,21.762,0,0,0,1.1-2.392,7.9,7.9,0,0,0,1.809,2.246q.134.113.283.227A23.117,23.117,0,0,0,40.462,13.572Zm9.155-.082a1.3,1.3,0,0,1-.5.087,5.932,5.932,0,0,1-2.089-.632c.351-.026.672-.039.96-.039a3.7,3.7,0,0,1,1.2.129C49.7,13.167,49.705,13.434,49.617,13.49ZM51.2,4.246,48.162,1.2A4.739,4.739,0,0,0,45.255,0H35.036a1.708,1.708,0,0,0-1.7,1.7V20.1a1.708,1.708,0,0,0,1.7,1.7H50.7a1.708,1.708,0,0,0,1.7-1.7V7.153A4.739,4.739,0,0,0,51.2,4.246Zm-.963.963a1.8,1.8,0,0,1,.2.241h-3.48V1.97a1.8,1.8,0,0,1,.241.2ZM51.045,20.1a.345.345,0,0,1-.341.341H35.036A.345.345,0,0,1,34.7,20.1V1.7a.345.345,0,0,1,.341-.341H45.255A1.857,1.857,0,0,1,45.6,1.4V6.812h5.414a1.856,1.856,0,0,1,.036.341Z" transform="translate(-33.333 0)"/>
</svg>
