<?xml version="1.0" encoding="utf-8"?>
<!-- Generator: Adobe Illustrator 22.0.1, SVG Export Plug-In . SVG Version: 6.00 Build 0)  -->
<svg version="1.1" id="Groupe_145" xmlns="http://www.w3.org/2000/svg" xmlns:xlink="http://www.w3.org/1999/xlink" x="0px" y="0px"
	 viewBox="0 0 30.576 81.214" enable-background="new 0 0 30.576 81.214" xml:space="preserve">
<path fill="#A89675" d="M7.599,20.551c-2.742-0.003-4.968-2.232-4.964-4.971c0.001-2.739,2.233-4.957,4.973-4.954
	C8.923,10.627,11,11.986,11,11.986l1.822-2.085c0,0-1.643-1.846-1.642-3.148c0-0.793,0.243-1.528,0.658-2.14
	c0.11-0.164,0.232-0.32,0.366-0.464c0.019-0.022,0.04-0.04,0.06-0.061c0.019-0.021,0.035-0.042,0.054-0.061
	c0.082-0.08,0.171-0.157,0.26-0.229c0.095-0.078,0.196-0.151,0.297-0.22c0.018-0.013,0.036-0.026,0.054-0.038
	c0.084-0.054,0.17-0.104,0.26-0.153c0.216-0.117,0.453-0.214,0.694-0.288c0.1-0.031,0.201-0.061,0.304-0.084
	c0.041-0.008,0.082-0.014,0.122-0.022c0.106-0.021,0.213-0.035,0.321-0.046c0.126-0.013,0.25-0.023,0.38-0.023
	c0.003,0,0.005,0,0.008,0c0.129,0.001,0.254,0.01,0.382,0.024c0.109,0.01,0.215,0.025,0.32,0.046C15.734,2.999,15.75,3,15.765,3.003
	c0.005,0,0.01-0.001,0.015,0c0.026,0.005,0.05,0.017,0.076,0.023c0.098,0.022,0.196,0.047,0.29,0.076
	c0.239,0.075,0.469,0.172,0.686,0.29c0.019,0.011,0.041,0.019,0.06,0.03c0.088,0.05,0.176,0.104,0.26,0.161
	c0.18,0.122,0.346,0.254,0.502,0.405c0.022,0.021,0.041,0.04,0.061,0.061c0.087,0.086,0.173,0.18,0.25,0.275
	c0.003,0.003,0.005,0.005,0.008,0.008c0.076,0.091,0.147,0.191,0.214,0.29c0.412,0.611,0.654,1.347,0.653,2.14
	c-0.001,1.302-1.648,3.144-1.648,3.144l1.818,2.089c0,0,2.077-1.354,3.394-1.352c2.74,0.003,4.967,2.223,4.964,4.963
	c-0.003,2.738-2.233,4.963-4.975,4.962c-2.472-0.004-4.896-4.188-4.896-4.188l-1.235-0.001l-2.523-0.003l-1.235-0.001
	C12.503,16.374,10.072,20.553,7.599,20.551 M16.974,78.427c0.001-0.621-0.278-1.174-0.714-1.55c-0.289-0.192-0.42-0.24-0.42-0.581
	l0.001-0.407l0.869,0.001l-0.066-47.226c0.149,0.046,0.308,0.076,0.473,0.076c0.889,0.001,1.608-1.613,1.608-1.613
	s-0.716-1.608-1.607-1.608c-0.181,0-0.355,0.036-0.518,0.09l-0.008-0.267c0,0,1.001-1.106,1.005-2.354
	c0.004-1.241-0.989-2.623-1-3.298c1.283,1.816,3.399,3.004,5.791,3.007c3.919,0.004,7.107-3.176,7.111-7.093
	c0.004-3.916-3.177-7.094-7.096-7.097c-0.56-0.001-1.102,0.066-1.624,0.188c0.205-0.609,0.321-1.256,0.322-1.934
	c0-0.715-0.123-1.404-0.35-2.042c-0.007-0.019-0.015-0.036-0.023-0.054c-0.011-0.032-0.026-0.061-0.037-0.091
	c-0.025-0.061-0.043-0.123-0.069-0.183c-0.009-0.023-0.021-0.046-0.03-0.069c-0.01-0.025-0.019-0.051-0.029-0.076
	c-0.044-0.098-0.095-0.194-0.145-0.29c-0.017-0.03-0.029-0.061-0.046-0.091c-0.001-0.003-0.007-0.004-0.008-0.008
	c-0.014-0.028-0.029-0.056-0.044-0.084c-0.054-0.096-0.11-0.19-0.167-0.283c-0.005-0.008-0.01-0.014-0.015-0.022
	c-0.026-0.039-0.051-0.076-0.077-0.115c-0.059-0.089-0.118-0.182-0.183-0.267c-0.078-0.104-0.165-0.206-0.25-0.305
	C19.614,2.768,19.6,2.75,19.584,2.732c-0.087-0.1-0.174-0.19-0.267-0.283c-0.069-0.069-0.141-0.132-0.213-0.198
	c-0.072-0.065-0.147-0.129-0.221-0.191c-0.053-0.043-0.105-0.087-0.16-0.13c-0.033-0.025-0.065-0.051-0.098-0.076
	c-0.061-0.044-0.12-0.086-0.183-0.13c-0.013-0.008-0.026-0.014-0.039-0.023c-0.161-0.109-0.32-0.207-0.49-0.299
	c-0.08-0.044-0.167-0.089-0.25-0.13c-0.043-0.021-0.087-0.04-0.129-0.061c-0.061-0.028-0.12-0.057-0.183-0.084
	c-0.101-0.042-0.201-0.078-0.304-0.115c-0.061-0.022-0.129-0.042-0.191-0.061c-0.13-0.042-0.263-0.083-0.397-0.115
	c-0.128-0.032-0.257-0.061-0.387-0.084c-0.046-0.008-0.093-0.017-0.138-0.024c-0.138-0.022-0.278-0.035-0.419-0.046
	c-0.163-0.014-0.322-0.023-0.488-0.023c-0.005,0-0.01,0-0.015,0c-0.003,0-0.005,0-0.008,0c-0.163,0-0.326,0.008-0.488,0.022
	c-0.144,0.011-0.286,0.024-0.426,0.046c-0.019,0.003-0.036,0.005-0.054,0.008c-0.021,0.004-0.041,0.011-0.061,0.015
	c-0.138,0.023-0.277,0.051-0.412,0.083c-0.144,0.036-0.286,0.076-0.426,0.122c-0.059,0.019-0.118,0.039-0.176,0.061
	c-0.018,0.007-0.036,0.017-0.054,0.023c-0.087,0.032-0.174,0.062-0.26,0.098c-0.054,0.023-0.106,0.044-0.16,0.069
	c-0.058,0.026-0.118,0.054-0.176,0.084c-0.019,0.01-0.041,0.021-0.06,0.031c-0.047,0.024-0.093,0.051-0.138,0.076
	c-0.09,0.048-0.18,0.092-0.267,0.144c-0.08,0.051-0.156,0.107-0.235,0.161c-0.075,0.05-0.149,0.1-0.221,0.153
	c-0.086,0.062-0.169,0.13-0.252,0.197c-0.06,0.05-0.116,0.1-0.174,0.153c-0.015,0.013-0.032,0.024-0.047,0.038
	c-0.054,0.05-0.106,0.1-0.159,0.151c-0.077,0.075-0.149,0.151-0.221,0.229c-0.01,0.01-0.021,0.021-0.031,0.03
	c-0.065,0.072-0.129,0.146-0.191,0.222c-0.057,0.068-0.115,0.135-0.167,0.205c-0.065,0.085-0.124,0.178-0.183,0.267
	c-0.055,0.08-0.11,0.161-0.162,0.244c-0.102,0.166-0.196,0.34-0.283,0.517C9.475,4.198,9.436,4.29,9.397,4.382
	c-0.04,0.091-0.073,0.182-0.108,0.275C9.282,4.674,9.274,4.691,9.266,4.71C9.041,5.347,8.916,6.034,8.916,6.75
	C8.915,7.429,9.03,8.076,9.233,8.685C8.711,8.562,8.17,8.494,7.611,8.493C3.691,8.49,0.504,11.662,0.5,15.579
	c-0.005,3.916,3.177,7.103,7.096,7.107c2.392,0.001,4.509-1.182,5.796-2.997c-0.011,0.711-0.948,2.201-0.966,3.31
	c-0.017,1.107,0.96,2.341,0.96,2.341l-0.008,0.267c-0.163-0.056-0.336-0.091-0.518-0.093c-0.889,0-1.61,1.607-1.61,1.607
	s0.718,1.615,1.608,1.616c0.163,0,0.324-0.031,0.473-0.075l-0.145,38.173l-1.139,0.001l0.025-2.689l-1.38,0.003l-0.314,0.464
	L9.46,64.616l-0.3-0.466l-3.524,0.007l-0.018,1.924l3.212-0.005l-0.013,1.686L6.06,67.767l-0.004,0.637l-0.005,0.741L6.047,69.78
	l2.758-0.004l-0.011,1.686L5.58,71.466l-0.021,1.925l3.523-0.007l0.314-0.466l0.92-0.001l0.3,0.466l1.38-0.003l0.023-2.69
	l1.153-0.001l-0.019,5.197h0.861l-0.001,0.32c0.043,0.348-0.053,0.414-0.325,0.591c-0.49,0.374-0.803,0.962-0.805,1.625
	c-0.001,1.13,2.041,2.052,2.041,2.052S16.973,79.555,16.974,78.427"/>
</svg>
