<svg xmlns="http://www.w3.org/2000/svg" viewBox="0 0 66.33 49.865">
  <defs>
    <style>
      .cls-1 {
        fill: #a89675;
      }
    </style>
  </defs>
  <g id="Groupe_31" data-name="Groupe 31" transform="translate(-0.1 -952.4)">
    <path id="Tracé_27" data-name="Tracé 27" class="cls-1" d="M21.739,952.4a10.421,10.421,0,0,0-8.938,6.115L1.511,981.1A14.486,14.486,0,0,0,.1,987.211a14.861,14.861,0,0,0,15.054,15.053,14.861,14.861,0,0,0,15.054-15.053v-2.352h6.115v2.352a15.054,15.054,0,0,0,30.107,0,14.486,14.486,0,0,0-1.411-6.116l-11.29-22.58c-1.411-2.822-5.175-6.115-8.938-6.115-4.7,0-8.468,3.764-8.468,8.938v5.175H30.207v-5.175C30.207,955.693,26.444,952.4,21.739,952.4Zm0,2.822c3.293,0,5.175,2.823,5.175,6.115a10.684,10.684,0,0,0-7.527-2.822,8.86,8.86,0,0,0-3.763.941C17.035,957.1,19.387,955.222,21.739,955.222Zm22.58,0a7.341,7.341,0,0,1,6.115,3.764,8.858,8.858,0,0,0-3.763-.941,10.686,10.686,0,0,0-7.527,2.822C39.145,958.044,41.027,955.222,44.32,955.222Zm-24.932,6.115c4.234,0,7.056,2.822,7.527,7.056h0v9.879a14.93,14.93,0,0,0-12.231-6.115,13.021,13.021,0,0,0-6.115,1.411c1.882-3.763,2.352-5.645,3.763-8.467a9.677,9.677,0,0,1,7.056-3.764Zm27.284,0a9.677,9.677,0,0,1,7.056,3.764c1.411,2.823,1.882,4.7,3.763,8.467a13.021,13.021,0,0,0-6.115-1.411,14.93,14.93,0,0,0-12.231,6.115v-9.879h0a7.639,7.639,0,0,1,7.527-7.056Zm-16.465,8.468h6.115v12.231H30.207ZM14.683,974.98a12.231,12.231,0,0,1,0,24.462,12.231,12.231,0,0,1,0-24.462Zm36.693,0a12.231,12.231,0,1,1-12.231,12.231A12.454,12.454,0,0,1,51.376,974.98Zm-36.693,3.293a8.938,8.938,0,0,0,0,17.876,9.253,9.253,0,0,0,8.938-8.938C24.092,982.036,19.858,978.273,14.683,978.273Zm36.693,0a8.938,8.938,0,0,0,0,17.876,9.253,9.253,0,0,0,8.938-8.938A8.65,8.65,0,0,0,51.376,978.273ZM14.683,981.1a6.116,6.116,0,0,1,0,12.231,6.116,6.116,0,0,1,0-12.231Zm36.693,0a6.116,6.116,0,1,1-6.115,6.116A6.227,6.227,0,0,1,51.376,981.1Z" transform="translate(0 0.001)"/>
  </g>
</svg>
