<?xml version="1.0" encoding="utf-8"?>
<!-- Generator: Adobe Illustrator 22.0.1, SVG Export Plug-In . SVG Version: 6.00 Build 0)  -->
<svg version="1.1" id="Groupe_32" xmlns="http://www.w3.org/2000/svg" xmlns:xlink="http://www.w3.org/1999/xlink" x="0px" y="0px"
	 viewBox="0 0 59.818 69.34" enable-background="new 0 0 59.818 69.34" xml:space="preserve">
<path fill="#A89675" stroke="#A89675" stroke-width="1.5616" stroke-miterlimit="10" d="M29.506,6.757
	c0.425,0,0.773-0.341,0.781-0.768l0.067-3.9c0.007-0.431-0.337-0.786-0.768-0.794c-0.45-0.015-0.786,0.337-0.794,0.768l-0.067,3.9
	c-0.007,0.431,0.337,0.786,0.768,0.794C29.497,6.757,29.502,6.757,29.506,6.757z"/>
<path fill="#A89675" stroke="#A89675" stroke-width="1.5616" stroke-miterlimit="10" d="M33.692,10.38
	c0.195,0,0.39-0.073,0.543-0.219l2.805-2.71c0.31-0.3,0.319-0.794,0.019-1.104s-0.793-0.319-1.104-0.019l-2.805,2.71
	c-0.31,0.3-0.319,0.794-0.019,1.104C33.284,10.301,33.488,10.38,33.692,10.38z"/>
<path fill="#A89675" stroke="#A89675" stroke-width="1.5616" stroke-miterlimit="10" d="M25.387,10.38
	c0.205,0,0.408-0.08,0.561-0.238c0.3-0.31,0.291-0.804-0.019-1.104l-2.805-2.71c-0.31-0.3-0.804-0.292-1.104,0.019
	c-0.3,0.31-0.291,0.804,0.019,1.104l2.805,2.71C24.996,10.308,25.191,10.38,25.387,10.38z"/>
<path fill="#A89675" stroke="#A89675" stroke-width="1.5616" stroke-miterlimit="10" d="M30.759,16.676
	c0.094,3.058,1.573,10.552,2.307,13.544c2.374,9.686,7.528,16.625,12.118,16.625c0.092,0,0.184-0.011,0.276-0.016l4.251,17.343
	l-4.8,1.177c-0.419,0.102-0.675,0.525-0.572,0.944c0.087,0.357,0.407,0.595,0.757,0.595c0.062,0,0.124-0.007,0.187-0.023
	l11.117-2.724c0.419-0.102,0.675-0.525,0.572-0.944c-0.103-0.419-0.53-0.674-0.944-0.572l-4.8,1.177l-4.249-17.34
	c2.027-0.897,3.475-3.325,4.114-6.955c0.675-3.839,0.39-8.636-0.803-13.505c-0.733-2.993-2.887-10.321-4.216-13.076
	c-0.16-0.332-0.528-0.506-0.889-0.419l-13.829,3.389C30.995,15.982,30.747,16.308,30.759,16.676z M49.553,39.235
	c-0.592,3.362-1.936,5.537-3.688,5.967c-3.845,0.939-9.012-6.088-11.283-15.354c-0.335-1.368-0.829-3.688-1.27-6.075l13.812-3.258
	c0.697,2.279,1.317,4.511,1.647,5.856C49.914,31.035,50.192,35.604,49.553,39.235z M44.925,14.176
	c0.521,1.21,1.137,2.983,1.732,4.846l-13.619,3.213c-0.324-1.884-0.588-3.692-0.684-4.978L44.925,14.176z"/>
<path fill="#A89675" stroke="#A89675" stroke-width="1.5616" stroke-miterlimit="10" d="M3.246,62.623
	c-0.415-0.102-0.842,0.153-0.944,0.572C2.2,63.614,2.456,64.038,2.875,64.14l11.118,2.724c0.062,0.016,0.125,0.023,0.187,0.023
	c0.351,0,0.67-0.239,0.757-0.595c0.102-0.419-0.154-0.842-0.572-0.944l-4.8-1.177l4.251-17.343c0.092,0.005,0.183,0.016,0.276,0.016
	c4.59,0,9.744-6.939,12.119-16.625c0.733-2.994,2.213-10.488,2.307-13.544c0.012-0.369-0.237-0.695-0.595-0.782l-13.83-3.389
	c-0.358-0.087-0.729,0.087-0.889,0.419C11.873,15.681,9.72,23.008,8.988,26c-1.193,4.869-1.479,9.666-0.803,13.505
	c0.639,3.63,2.087,6.057,4.114,6.955L8.048,63.8L3.246,62.623z M14.349,14.176l12.572,3.081c-0.096,1.286-0.36,3.094-0.684,4.978
	l-13.62-3.213C13.211,17.159,13.828,15.386,14.349,14.176z M9.722,39.235c-0.639-3.631-0.362-8.199,0.782-12.864
	c0.329-1.345,0.949-3.576,1.646-5.856l13.812,3.258c-0.441,2.386-0.935,4.707-1.27,6.075c-2.271,9.265-7.436,16.294-11.283,15.353
	C11.657,44.772,10.313,42.598,9.722,39.235z"/>
</svg>
