<svg id="Groupe_34" data-name="Groupe 34" xmlns="http://www.w3.org/2000/svg" viewBox="0 0 73.818 67.38">
  <defs>
    <style>
      .cls-1 {
        fill: #a89675;
      }
    </style>
  </defs>
  <path id="Tracé_35" data-name="Tracé 35" class="cls-1" d="M72.959,36.909l-6.867-3.433v-.858A1.846,1.846,0,0,0,64.376,30.9c-.429,0-1.288.429-1.288.858l-6.438-3v-.429a1.846,1.846,0,0,0-1.717-1.717c-.429,0-1.288.429-1.288.858l-9.871-5.15c0-6.008.429-10.729.429-11.588a20.616,20.616,0,0,0-1.717-6.438C41.2,1.717,39.055,0,36.909,0S32.617,1.717,30.9,4.292a20.616,20.616,0,0,0-1.717,6.438c0,.858,0,5.579.429,12.017l-9.871,4.721c0-.429-.858-.858-1.288-.858a1.846,1.846,0,0,0-1.717,1.717v.858l-6.008,3c-.429-.429-.858-.858-1.288-.858-.858,0-1.717.429-1.717,1.288v.858L.858,36.909A2.23,2.23,0,0,0,0,38.626v6.008a1.577,1.577,0,0,0,.429,1.288c.429.429.429.429.858.429h.429l28.325-6.008A93.344,93.344,0,0,0,30.471,51.5L22.317,57.08c-.429.429-.858.858-.858,1.288v6.008c0,.429.429.858.429,1.288.429,0,.429.429.858.429h.429l7.3-2.575v.858c0,.858.858,1.288,1.717,1.288h3a1.717,1.717,0,0,0,3.433,0h3a1.916,1.916,0,0,0,1.717-1.288v-.858l7.3,2.575h.429c.429,0,.429,0,.858-.429a1.577,1.577,0,0,0,.429-1.288V58.367c0-.429-.429-.858-.858-1.288L43.346,51.5c0-3.433.429-7.3.429-11.158L72.1,46.351h.429c.429,0,.858,0,.858-.429a1.577,1.577,0,0,0,.429-1.288V38.626A2.23,2.23,0,0,0,72.959,36.909Zm-23.6,22.317v3l-6.008-2.146v-5.15ZM3,42.917V39.484l26.609-13.3a100.786,100.786,0,0,0,.429,11.158ZM24.463,62.659v-3l6.008-3.863v5.15Zm13.734.429V55.363a1.717,1.717,0,0,0-3.433,0v7.725H33.9V61.372h0l-.429-9.442h0c-.429-15.021-1.288-39.055-1.288-41.2C32.188,8.154,34.334,3,36.909,3s4.721,5.15,4.721,7.725S40.342,54.5,40.342,63.088ZM70.813,42.917,43.776,37.338c0-3.863.429-7.725.429-11.158l26.609,13.3Z" transform="translate(0 0)"/>
</svg>
