<svg id="Groupe_11" data-name="Groupe 11" xmlns="http://www.w3.org/2000/svg" xmlns:xlink="http://www.w3.org/1999/xlink" viewBox="0 0 17.762 17.762">
  <defs>
    <style>
      .cls-1 {
        fill: #a89675;
      }

      .cls-2 {
        clip-path: url(#clip-path);
      }
    </style>
    <clipPath id="clip-path">
      <path id="Tracé_10" data-name="Tracé 10" class="cls-1" d="M0-32.087H17.762V-49.849H0Z" transform="translate(0 49.849)"/>
    </clipPath>
  </defs>
  <g id="Groupe_10" data-name="Groupe 10" class="cls-2" transform="translate(0 0)">
    <g id="Groupe_7" data-name="Groupe 7" transform="translate(0 0)">
      <path id="Tracé_7" data-name="Tracé 7" class="cls-1" d="M-16.043-2.891c2.371,0,2.652.009,3.589.052a4.908,4.908,0,0,1,1.649.306,2.752,2.752,0,0,1,1.021.664A2.749,2.749,0,0,1-9.12-.848,4.918,4.918,0,0,1-8.815.8c.043.936.052,1.218.052,3.589s-.009,2.652-.052,3.588A4.921,4.921,0,0,1-9.12,9.628a2.755,2.755,0,0,1-.664,1.021,2.752,2.752,0,0,1-1.021.664,4.92,4.92,0,0,1-1.649.306c-.936.043-1.217.052-3.589.052s-2.652-.009-3.589-.052a4.92,4.92,0,0,1-1.649-.306,2.752,2.752,0,0,1-1.021-.664,2.755,2.755,0,0,1-.664-1.021,4.921,4.921,0,0,1-.306-1.649c-.043-.936-.052-1.217-.052-3.588s.009-2.652.052-3.589a4.918,4.918,0,0,1,.306-1.649A2.749,2.749,0,0,1-22.3-1.869a2.752,2.752,0,0,1,1.021-.664,4.908,4.908,0,0,1,1.649-.306c.937-.043,1.218-.052,3.589-.052m0-1.6c-2.412,0-2.714.01-3.661.053a6.518,6.518,0,0,0-2.156.413A4.35,4.35,0,0,0-23.434-3a4.349,4.349,0,0,0-1.024,1.573A6.522,6.522,0,0,0-24.871.729c-.043.947-.053,1.25-.053,3.661s.01,2.714.053,3.661a6.518,6.518,0,0,0,.413,2.156,4.353,4.353,0,0,0,1.024,1.573A4.35,4.35,0,0,0-21.86,12.8a6.519,6.519,0,0,0,2.156.413c.947.043,1.25.053,3.661.053s2.714-.01,3.661-.053a6.519,6.519,0,0,0,2.156-.413A4.35,4.35,0,0,0-8.653,11.78a4.353,4.353,0,0,0,1.024-1.573,6.517,6.517,0,0,0,.413-2.156c.043-.947.053-1.25.053-3.661s-.01-2.714-.053-3.661a6.522,6.522,0,0,0-.413-2.156A4.349,4.349,0,0,0-8.653-3a4.35,4.35,0,0,0-1.573-1.024,6.517,6.517,0,0,0-2.156-.413c-.947-.043-1.25-.053-3.661-.053" transform="translate(24.924 4.491)"/>
    </g>
    <g id="Groupe_8" data-name="Groupe 8" transform="translate(4.32 4.32)">
      <path id="Tracé_8" data-name="Tracé 8" class="cls-1" d="M-8.239,0A4.56,4.56,0,0,0-12.8,4.56a4.56,4.56,0,0,0,4.56,4.56,4.56,4.56,0,0,0,4.56-4.56A4.56,4.56,0,0,0-8.239,0m0,7.521A2.96,2.96,0,0,1-11.2,4.56,2.96,2.96,0,0,1-8.239,1.6a2.96,2.96,0,0,1,2.96,2.96,2.96,2.96,0,0,1-2.96,2.96" transform="translate(12.799)"/>
    </g>
    <g id="Groupe_9" data-name="Groupe 9" transform="translate(12.556 3.074)">
      <path id="Tracé_9" data-name="Tracé 9" class="cls-1" d="M-3.851-1.925A1.066,1.066,0,0,1-4.916-.86,1.066,1.066,0,0,1-5.982-1.925,1.066,1.066,0,0,1-4.916-2.991,1.066,1.066,0,0,1-3.851-1.925" transform="translate(5.982 2.991)"/>
    </g>
  </g>
</svg>
