<svg xmlns="http://www.w3.org/2000/svg" viewBox="0 0 37.987 74.038">
  <defs>
    <style>
      .cls-1 {
        fill: #a89675;
        stroke: #a89675;
      }
    </style>
  </defs>
  <path id="Tracé_28" data-name="Tracé 28" class="cls-1" d="M36.987,19.2,32.773,1.4a1.007,1.007,0,0,0-.936-.936h-1.4L18.259,8.9,6.555.468A1.72,1.72,0,0,0,5.15,0c-.468.468-.936.468-.936.936L0,19.2a1.72,1.72,0,0,0,.468,1.4c.468,0,.468.468.936.468h.468l7.959-4.214,2.809,9.364L8.427,64.142a1.72,1.72,0,0,0,.468,1.4l8.427,7.023c.468.468.468.468.936.468s.468,0,.936-.468l8.427-7.023a.459.459,0,0,0,.468-.468,1.45,1.45,0,0,0,.468-.936L24.346,26.219l2.809-9.364,7.959,4.214h.468c.468,0,.468,0,.936-.468C36.987,20.6,36.987,19.664,36.987,19.2ZM6.555,3.746l8.9,6.555L9.832,13.109h0L3.746,16.855Zm18.728,59.46-7.023,6.086-7.023-5.618L15.45,27.623H22ZM22,24.346H14.982l-2.809-9.364L18.259,11.7l6.086,3.277Zm4.682-10.768h0L21.069,10.3l8.9-6.555,2.809,13.109Z" transform="translate(0.5 0.5)"/>
</svg>
