<?xml version="1.0" encoding="utf-8"?>
<!-- Generator: Adobe Illustrator 22.0.1, SVG Export Plug-In . SVG Version: 6.00 Build 0)  -->
<svg version="1.1" id="Layer_1" xmlns="http://www.w3.org/2000/svg" xmlns:xlink="http://www.w3.org/1999/xlink" x="0px" y="0px"
	 viewBox="0 0 296.752 89.057" enable-background="new 0 0 296.752 89.057" xml:space="preserve">
<g>
	<defs>
		<rect id="SVGID_1_" x="0.894" y="2.156" width="294.559" height="85.399"/>
	</defs>
	<clipPath id="SVGID_2_">
		<use xlink:href="#SVGID_1_"  overflow="visible"/>
	</clipPath>
	<path clip-path="url(#SVGID_2_)" fill="#FFFFFF" d="M295.001,24.802h-0.341c-1.966,6.067-4.956,8.075-9.357,8.075h-6.367V17.879
		c2.735,0,6.879,0,7.521,6.067h0.341V11.47h-0.341c-0.684,5.939-4.615,5.939-7.521,5.939V3.395h4.401
		c5.726,0,7.607,3.418,8.846,6.879h0.341V2.925h-22.731v0.47h3.846v29.482h-3.846v0.47h25.21V24.802z M256.269,28.006
		c0,3.162-0.597,5.64-6.537,5.64c-3.503,0-5.512-1.282-6.538-3.717c-1.11-2.607-1.366-5.341-1.366-11.536
		c0-3.975,0.256-9.871,1.794-12.52c0.726-1.239,2.264-3.247,6.152-3.247c5.342,0,7.734,4.871,8.76,9.485h0.341V3.223h-0.341
		c-0.257,0.471-0.513,0.813-1.282,0.813c-0.341,0-0.896-0.043-2.308-0.599c-2.221-0.854-3.333-1.281-5.212-1.281
		c-6.025,0-13.973,6.11-13.973,16.621c0,9.144,5.854,15.339,14.314,15.339c2.266,0,4.102-0.341,6.324-1.282
		c1.538-0.641,2.094-0.896,2.863-0.896c0.343,0,1.495,0,1.966,1.41h0.341V22.11h3.888v-0.47h-13.929v0.47h4.742V28.006z
		 M219.974,32.877h-3.846v0.47h12.989v-0.47h-3.845V3.395h3.845v-0.47h-12.989v0.47h3.846V32.877z M194.873,32.877h-3.845v0.47
		h12.989v-0.47h-3.846V3.395h0.512c5.812,0,8.888,4.528,9.742,9.784h0.343V2.925h-26.492v10.254h0.343
		c0.854-5.256,3.93-9.784,9.742-9.784h0.512V32.877z M158.407,33.69h0.341c0.085-0.299,0.47-1.197,1.752-1.197
		c0.854,0,1.495,0.214,3.289,0.854c2.18,0.769,3.59,0.769,4.615,0.769c5.256,0,10.085-4.742,10.085-9.913
		c0-4.871-3.461-6.495-7.606-8.376c-5.597-2.605-8.588-4.015-8.588-8.075c0-3.846,3.376-5.127,5.598-5.127
		c4.657,0,6.366,5.298,7.263,8.204h0.343V2.326h-0.343c-0.085,0.385-0.341,1.196-1.41,1.196c-0.341,0-0.726-0.085-1.495-0.385
		c-1.582-0.597-2.607-0.982-4.187-0.982c-4.914,0-8.674,4.572-8.674,9.485c0,4.871,2.691,6.324,7.647,8.675
		c6.153,2.948,8.332,4.015,8.332,7.52c0,3.931-3.418,5.811-6.965,5.811c-4.486,0-8.759-4.486-9.657-10.767h-0.341V33.69z
		 M151.422,24.802h-0.341c-1.965,6.067-4.956,8.075-9.357,8.075h-6.366V17.879c2.734,0,6.879,0,7.52,6.067h0.341V11.47h-0.341
		c-0.684,5.939-4.615,5.939-7.52,5.939V3.395h4.4c5.727,0,7.607,3.418,8.846,6.879h0.341V2.925h-22.731v0.47h3.846v29.482h-3.846
		v0.47h25.21V24.802z M101.583,3.437c0.683-0.042,2.221-0.214,3.289-0.214c4.444,0,5.64,3.376,5.64,7.393
		c0,5.726-2.179,6.495-4.23,6.495h-4.699V3.437z M96.284,32.877h-3.846v0.47h13.033v-0.47h-3.888V17.58h4.699
		c2.351,0,4.401,0.684,4.956,3.59c0.214,1.152,0.214,4.187,0.214,4.956c0,3.759,1.239,7.563,7.05,7.563
		c2.18,0,3.077-0.599,3.846-1.197l-0.341-0.47c-0.428,0.341-1.197,1.025-2.393,1.025c-2.393,0-2.393-2.136-2.436-5.17
		c-0.042-4.786-0.085-9.229-8.716-10.511v-0.171c3.289-0.684,7.562-2.649,7.562-6.58c0-5.854-6.281-7.862-11.152-7.862
		c-0.811,0-1.666,0.043-2.478,0.085c-0.854,0.043-1.666,0.087-2.522,0.087h-7.435v0.47h3.846V32.877z M70.201,3.395
		c1.709-0.085,2.221-0.172,2.99-0.172c5.64,0,7.179,4.359,7.179,9.401c0,4.401-1.11,8.588-5.512,8.588
		c-2.008,0-3.761-1.281-4.657-1.838V3.395z M64.902,32.877h-3.846v0.47h12.989v-0.47h-3.845V20.058
		c0.896,0.599,2.819,1.624,4.956,1.624c2.008,0,3.375-0.256,4.871-0.896c3.375-1.453,6.067-4.189,6.067-8.162
		c0-7.008-6.58-9.871-12.69-9.871c-0.983,0-2.008,0.043-3.033,0.085c-1.026,0.043-2.008,0.087-3.033,0.087h-6.282v0.47h3.846V32.877
		z"/>
	<path clip-path="url(#SVGID_2_)" fill="#FFFFFF" d="M280.469,45.832h6.519v17.976h1.946V45.832h6.519v-1.778h-14.984V45.832z
		 M272.286,60.788l-12.247-16.705h-2.06v19.725h1.947V47.102l12.219,16.705h2.06V44.083h-1.919V60.788z M236.814,63.808h13.574
		v-1.75h-11.627v-7.421h10.074v-1.75h-10.074v-7.055h11.26v-1.75h-13.207V63.808z M207.551,63.808h1.835V46.764l7.76,14.927h1.073
		l7.732-14.927l0.028,17.044h1.805V44.054h-2.427l-7.647,14.815l-7.732-14.815h-2.427V63.808z M186.387,63.808h13.574v-1.75h-11.627
		v-7.421h10.075v-1.75h-10.075v-7.055h11.26v-1.75h-13.207V63.808z M176.117,60.449c-0.791,0.565-1.651,1.002-2.582,1.312
		c-0.932,0.31-1.867,0.466-2.809,0.466c-1.523,0-2.929-0.371-4.218-1.115c-1.289-0.743-2.309-1.75-3.062-3.02
		c-0.753-1.269-1.128-2.666-1.128-4.19c0-1.506,0.375-2.888,1.128-4.148c0.753-1.261,1.769-2.263,3.048-3.006
		c1.278-0.742,2.68-1.114,4.205-1.114c1.128,0,2.22,0.203,3.273,0.607c1.054,0.405,1.984,0.983,2.794,1.736l1.128-1.383
		c-0.959-0.848-2.064-1.506-3.315-1.976c-1.251-0.47-2.545-0.706-3.88-0.706c-1.882,0-3.617,0.447-5.207,1.341
		c-1.59,0.894-2.845,2.102-3.767,3.627c-0.922,1.523-1.383,3.197-1.383,5.023c0,1.824,0.46,3.509,1.383,5.051
		c0.922,1.542,2.168,2.765,3.739,3.669c1.571,0.903,3.288,1.354,5.15,1.354c1.316,0,2.611-0.23,3.88-0.692
		c1.27-0.46,2.385-1.096,3.345-1.904v-7.225h-1.721V60.449z M146.712,46.142l4.741,10.667h-9.425L146.712,46.142z M156.673,63.808
		l-8.889-19.725h-2.031l-8.889,19.725h2.088l2.313-5.249h10.95l2.341,5.249H156.673z M128.85,60.788l-12.247-16.705h-2.06v19.725
		h1.947V47.102l12.219,16.705h2.06V44.083h-1.919V60.788z M98.515,46.142l4.741,10.667H93.83L98.515,46.142z M108.476,63.808
		l-8.889-19.725h-2.033l-8.889,19.725h2.088l2.314-5.249h10.949l2.343,5.249H108.476z M62.366,63.808h1.834V46.764l7.761,14.927
		h1.073l7.732-14.927l0.027,17.044h1.806V44.054h-2.427l-7.647,14.815l-7.732-14.815h-2.427V63.808z"/>
	<path clip-path="url(#SVGID_2_)" fill="#FFFFFF" d="M286.791,87.457h7.831v-1.009h-6.707v-4.282h5.812v-1.009h-5.812v-4.071h6.496
		v-1.009h-7.62V87.457z M276.828,74.856l0.976,0.114l2.052-1.628l-1.123-0.489L276.828,74.856z M273.605,87.457h7.83v-1.009h-6.707
		v-4.282h5.812v-1.009h-5.812v-4.071h6.496v-1.009h-7.619V87.457z M263.251,87.457h1.171l4.673-11.379h-1.189l-4.037,10.143
		l-4.054-10.143h-1.205L263.251,87.457z M252.978,87.457h1.124V76.078h-1.124V87.457z M239.726,82.769v-5.682h3.125
		c1.086,0,1.922,0.24,2.508,0.716c0.585,0.478,0.879,1.173,0.879,2.084c0,0.933-0.294,1.647-0.879,2.141
		c-0.586,0.494-1.422,0.741-2.508,0.741H239.726z M247.41,87.457l-2.734-3.923c0.846-0.249,1.498-0.689,1.953-1.319
		c0.456-0.63,0.684-1.416,0.684-2.36c0-1.205-0.387-2.136-1.163-2.792c-0.776-0.657-1.876-0.984-3.297-0.984h-4.248v11.379h1.123
		v-3.679h3.125c0.184,0,0.451-0.011,0.798-0.033l2.459,3.712H247.41z M229.275,82.769h-3.028v-5.682h3.028
		c1.096,0,1.937,0.24,2.523,0.716c0.586,0.478,0.879,1.173,0.879,2.084c0,0.933-0.295,1.647-0.887,2.141
		C231.198,82.522,230.359,82.769,229.275,82.769 M229.323,76.078h-4.201v11.379h1.124v-3.679h3.077c1.411,0,2.501-0.341,3.272-1.025
		s1.156-1.649,1.156-2.898c0-1.205-0.386-2.136-1.156-2.792S230.734,76.078,229.323,76.078 M204.854,87.457h7.83v-1.009h-6.707
		v-4.282h5.812v-1.009h-5.812v-4.071h6.496v-1.009h-7.619V87.457z M197.545,87.457h1.124V76.078h-1.124V87.457z M184.292,82.769
		v-5.682h3.125c1.086,0,1.922,0.24,2.508,0.716c0.586,0.478,0.879,1.173,0.879,2.084c0,0.933-0.293,1.647-0.879,2.141
		c-0.586,0.494-1.422,0.741-2.508,0.741H184.292z M191.977,87.457l-2.735-3.923c0.846-0.249,1.498-0.689,1.954-1.319
		c0.455-0.63,0.683-1.416,0.683-2.36c0-1.205-0.387-2.136-1.163-2.792s-1.876-0.984-3.297-0.984h-4.248v11.379h1.123v-3.679h3.125
		c0.186,0,0.451-0.011,0.799-0.033l2.458,3.712H191.977z M169.983,87.457h7.83v-1.009h-6.707v-4.282h5.812v-1.009h-5.812v-4.071
		h6.496v-1.009h-7.619V87.457z M163.08,85.52c-0.456,0.325-0.953,0.577-1.49,0.757c-0.538,0.179-1.078,0.268-1.621,0.268
		c-0.879,0-1.69-0.214-2.434-0.643c-0.743-0.428-1.333-1.009-1.766-1.741c-0.435-0.733-0.651-1.538-0.651-2.417
		c0-0.869,0.217-1.667,0.651-2.394c0.433-0.727,1.02-1.304,1.758-1.733c0.738-0.429,1.546-0.643,2.425-0.643
		c0.651,0,1.281,0.116,1.889,0.351c0.608,0.233,1.144,0.566,1.611,1.001l0.651-0.798c-0.554-0.489-1.192-0.868-1.913-1.14
		c-0.722-0.271-1.468-0.406-2.238-0.406c-1.085,0-2.087,0.257-3.004,0.773c-0.917,0.516-1.641,1.212-2.173,2.092
		c-0.531,0.879-0.798,1.844-0.798,2.898c0,1.052,0.267,2.023,0.798,2.914c0.532,0.89,1.251,1.595,2.157,2.115
		c0.906,0.521,1.897,0.781,2.971,0.781c0.76,0,1.506-0.133,2.238-0.398c0.733-0.265,1.376-0.632,1.93-1.1V81.89h-0.993V85.52z
		 M141.834,82.769v-5.682h3.125c1.085,0,1.922,0.24,2.508,0.716c0.585,0.478,0.879,1.173,0.879,2.084
		c0,0.933-0.294,1.647-0.879,2.141c-0.586,0.494-1.423,0.741-2.508,0.741H141.834z M149.518,87.457l-2.734-3.923
		c0.846-0.249,1.498-0.689,1.953-1.319c0.456-0.63,0.684-1.416,0.684-2.36c0-1.205-0.387-2.136-1.163-2.792
		c-0.777-0.657-1.876-0.984-3.297-0.984h-4.249v11.379h1.124v-3.679h3.125c0.184,0,0.451-0.011,0.798-0.033l2.459,3.712H149.518z
		 M127.525,87.457h7.83v-1.009h-6.707v-4.282h5.812v-1.009h-5.812v-4.071h6.496v-1.009h-7.619V87.457z M120.215,87.457h1.124V76.078
		h-1.124V87.457z M114.468,78.389l0.668-0.781c-0.543-0.511-1.173-0.909-1.889-1.197c-0.716-0.287-1.46-0.431-2.23-0.431
		c-1.074,0-2.065,0.257-2.971,0.773c-0.906,0.516-1.625,1.212-2.157,2.092c-0.531,0.879-0.798,1.844-0.798,2.898
		c0,1.052,0.264,2.023,0.789,2.914c0.527,0.89,1.24,1.595,2.141,2.115c0.902,0.521,1.889,0.781,2.963,0.781
		c0.76,0,1.503-0.152,2.23-0.455c0.727-0.303,1.373-0.716,1.938-1.238l-0.684-0.733c-0.467,0.435-0.998,0.773-1.595,1.018
		c-0.597,0.244-1.211,0.366-1.84,0.366c-0.879,0-1.685-0.214-2.417-0.643c-0.733-0.428-1.314-1.006-1.741-1.733
		c-0.429-0.727-0.643-1.525-0.643-2.393c0-0.869,0.214-1.67,0.643-2.402c0.428-0.733,1.009-1.31,1.741-1.733
		c0.733-0.424,1.538-0.635,2.417-0.635c0.641,0,1.259,0.125,1.857,0.375C113.486,77.597,114.011,77.944,114.468,78.389
		 M98.888,85.715l-7.066-9.638h-1.188v11.379h1.123v-9.638l7.05,9.638h1.189V76.078h-1.108V85.715z M79.628,76.989
		c0.857,0,1.652,0.211,2.385,0.635s1.316,0.998,1.751,1.725c0.433,0.727,0.65,1.525,0.65,2.394c0,0.868-0.217,1.671-0.65,2.409
		c-0.435,0.738-1.018,1.322-1.751,1.75c-0.733,0.429-1.528,0.643-2.385,0.643c-0.868,0-1.671-0.214-2.409-0.643
		c-0.738-0.428-1.324-1.012-1.759-1.75c-0.433-0.738-0.651-1.541-0.651-2.409c0-0.869,0.218-1.667,0.651-2.394
		c0.435-0.727,1.021-1.301,1.759-1.725S78.76,76.989,79.628,76.989 M79.612,75.98c-1.086,0-2.081,0.257-2.987,0.773
		c-0.906,0.516-1.625,1.212-2.157,2.092c-0.532,0.879-0.798,1.844-0.798,2.898c0,1.052,0.265,2.023,0.798,2.914
		c0.532,0.89,1.251,1.595,2.157,2.115c0.906,0.521,1.901,0.781,2.987,0.781c1.085,0,2.081-0.26,2.987-0.781
		c0.906-0.52,1.625-1.226,2.157-2.115c0.532-0.891,0.798-1.862,0.798-2.914c0-1.054-0.265-2.019-0.798-2.898
		c-0.532-0.88-1.251-1.576-2.157-2.092C81.693,76.237,80.697,75.98,79.612,75.98 M69.323,78.389l0.668-0.781
		c-0.543-0.511-1.173-0.909-1.889-1.197c-0.716-0.287-1.46-0.431-2.23-0.431c-1.074,0-2.065,0.257-2.971,0.773
		c-0.906,0.516-1.625,1.212-2.157,2.092c-0.531,0.879-0.798,1.844-0.798,2.898c0,1.052,0.264,2.023,0.789,2.914
		c0.527,0.89,1.24,1.595,2.141,2.115c0.901,0.521,1.889,0.781,2.963,0.781c0.76,0,1.503-0.152,2.23-0.455
		c0.727-0.303,1.373-0.716,1.938-1.238l-0.684-0.733c-0.467,0.435-0.998,0.773-1.595,1.018c-0.597,0.244-1.211,0.366-1.84,0.366
		c-0.879,0-1.685-0.214-2.417-0.643c-0.733-0.428-1.314-1.006-1.741-1.733c-0.429-0.727-0.643-1.525-0.643-2.393
		c0-0.869,0.214-1.67,0.643-2.402c0.428-0.733,1.009-1.31,1.741-1.733c0.733-0.424,1.538-0.635,2.417-0.635
		c0.641,0,1.259,0.125,1.857,0.375C68.341,77.597,68.866,77.944,69.323,78.389"/>
	
		<line clip-path="url(#SVGID_2_)" fill="none" stroke="#FFFFFF" stroke-width="1.3542" x1="44.432" y1="2.54" x2="44.432" y2="87.555"/>
	<path clip-path="url(#SVGID_2_)" fill="#FFFFFF" d="M8.407,23.726c-2.901-0.003-5.257-2.378-5.253-5.295
		c0.001-2.918,2.363-5.28,5.262-5.277c1.392,0.001,3.589,1.448,3.589,1.448l1.928-2.221c0,0-1.739-1.966-1.737-3.353
		c0-0.845,0.257-1.628,0.696-2.279c0.116-0.175,0.245-0.341,0.387-0.494c0.02-0.023,0.042-0.043,0.064-0.065
		c0.02-0.022,0.037-0.045,0.057-0.065c0.087-0.085,0.181-0.167,0.275-0.244c0.1-0.083,0.207-0.161,0.314-0.234
		c0.019-0.014,0.038-0.028,0.057-0.041c0.089-0.058,0.18-0.111,0.275-0.163c0.229-0.125,0.479-0.228,0.734-0.307
		c0.106-0.033,0.213-0.065,0.322-0.089c0.043-0.008,0.087-0.015,0.129-0.023c0.112-0.022,0.225-0.037,0.34-0.049
		c0.133-0.014,0.265-0.024,0.402-0.024c0.003,0,0.005,0,0.008,0c0.137,0.001,0.269,0.011,0.404,0.026
		c0.115,0.011,0.228,0.027,0.339,0.049c0.016,0.003,0.033,0.004,0.049,0.008c0.005,0,0.011-0.001,0.016,0
		c0.027,0.005,0.053,0.018,0.08,0.024c0.104,0.023,0.207,0.05,0.307,0.081c0.253,0.08,0.496,0.183,0.726,0.309
		c0.02,0.012,0.043,0.02,0.064,0.032c0.093,0.053,0.186,0.111,0.275,0.171c0.19,0.13,0.366,0.271,0.531,0.431
		c0.023,0.022,0.043,0.043,0.065,0.065c0.092,0.092,0.183,0.192,0.265,0.293c0.003,0.003,0.005,0.005,0.008,0.008
		c0.08,0.097,0.156,0.203,0.226,0.309c0.436,0.651,0.692,1.435,0.691,2.28c-0.001,1.387-1.744,3.349-1.744,3.349l1.924,2.225
		c0,0,2.198-1.442,3.591-1.44c2.899,0.003,5.256,2.368,5.253,5.287c-0.003,2.917-2.363,5.287-5.264,5.285
		c-2.616-0.004-5.181-4.461-5.181-4.461l-1.307-0.001l-2.67-0.003l-1.307-0.001C13.596,19.276,11.023,23.728,8.407,23.726
		 M18.327,85.374c0.001-0.661-0.294-1.251-0.756-1.651c-0.306-0.204-0.444-0.256-0.444-0.619l0.001-0.433l0.919,0.001l-0.07-50.304
		c0.158,0.049,0.326,0.081,0.501,0.081c0.941,0.001,1.702-1.718,1.702-1.718s-0.758-1.713-1.7-1.713
		c-0.192,0-0.376,0.038-0.548,0.096l-0.008-0.284c0,0,1.059-1.178,1.063-2.507c0.004-1.322-1.047-2.794-1.058-3.513
		c1.358,1.934,3.597,3.2,6.128,3.203c4.147,0.004,7.52-3.383,7.524-7.555c0.004-4.171-3.362-7.556-7.509-7.56
		c-0.593-0.001-1.166,0.07-1.718,0.2c0.217-0.649,0.34-1.338,0.341-2.06c0-0.762-0.13-1.496-0.37-2.175
		c-0.007-0.02-0.016-0.038-0.024-0.057c-0.012-0.034-0.027-0.065-0.039-0.097c-0.026-0.065-0.046-0.131-0.073-0.195
		c-0.009-0.024-0.022-0.049-0.032-0.073c-0.011-0.027-0.02-0.054-0.031-0.081c-0.047-0.104-0.1-0.207-0.153-0.309
		c-0.018-0.032-0.031-0.065-0.049-0.097c-0.001-0.003-0.007-0.004-0.008-0.008c-0.015-0.03-0.031-0.06-0.047-0.089
		c-0.057-0.102-0.116-0.202-0.177-0.301c-0.005-0.008-0.011-0.015-0.016-0.023c-0.027-0.042-0.054-0.081-0.081-0.122
		c-0.062-0.095-0.125-0.194-0.194-0.284c-0.083-0.111-0.175-0.219-0.265-0.325c-0.016-0.019-0.031-0.038-0.047-0.057
		c-0.092-0.106-0.184-0.202-0.283-0.301c-0.073-0.073-0.149-0.141-0.225-0.211c-0.076-0.069-0.156-0.137-0.234-0.203
		c-0.056-0.046-0.111-0.093-0.169-0.138c-0.035-0.027-0.069-0.054-0.104-0.081c-0.065-0.047-0.127-0.092-0.194-0.138
		c-0.014-0.008-0.027-0.015-0.041-0.024C19.669,3.533,19.5,3.428,19.321,3.33c-0.085-0.047-0.177-0.095-0.265-0.138
		c-0.045-0.022-0.092-0.043-0.137-0.065c-0.065-0.03-0.127-0.061-0.194-0.089c-0.107-0.045-0.213-0.083-0.322-0.122
		c-0.065-0.023-0.137-0.045-0.202-0.065c-0.138-0.045-0.278-0.088-0.42-0.122c-0.135-0.034-0.272-0.065-0.41-0.089
		c-0.049-0.009-0.098-0.018-0.146-0.026c-0.146-0.023-0.294-0.037-0.443-0.049c-0.172-0.015-0.341-0.024-0.516-0.024
		c-0.005,0-0.011,0-0.016,0c-0.003,0-0.005,0-0.008,0c-0.173,0-0.345,0.009-0.516,0.023c-0.152,0.012-0.303,0.026-0.451,0.049
		c-0.02,0.003-0.038,0.005-0.057,0.008c-0.022,0.004-0.043,0.012-0.065,0.016c-0.146,0.024-0.293,0.054-0.436,0.088
		c-0.152,0.038-0.303,0.081-0.451,0.13c-0.062,0.02-0.125,0.042-0.186,0.065c-0.019,0.007-0.038,0.018-0.057,0.024
		c-0.092,0.034-0.184,0.066-0.275,0.104c-0.057,0.024-0.112,0.047-0.169,0.073c-0.061,0.028-0.125,0.058-0.186,0.089
		c-0.02,0.011-0.043,0.022-0.064,0.033c-0.05,0.026-0.098,0.054-0.146,0.081c-0.095,0.051-0.19,0.098-0.283,0.153
		c-0.085,0.054-0.165,0.114-0.249,0.171c-0.079,0.053-0.158,0.106-0.234,0.163c-0.091,0.066-0.179,0.138-0.267,0.21
		c-0.064,0.053-0.123,0.107-0.184,0.163c-0.016,0.014-0.034,0.026-0.05,0.041c-0.057,0.053-0.112,0.107-0.168,0.161
		c-0.081,0.08-0.158,0.161-0.234,0.244c-0.011,0.011-0.022,0.022-0.033,0.032c-0.069,0.077-0.137,0.156-0.202,0.236
		c-0.06,0.072-0.122,0.144-0.177,0.218c-0.069,0.091-0.131,0.19-0.194,0.284c-0.058,0.085-0.116,0.171-0.171,0.26
		c-0.108,0.177-0.207,0.362-0.299,0.551c-0.046,0.095-0.088,0.194-0.129,0.291c-0.042,0.097-0.077,0.194-0.114,0.293
		c-0.007,0.019-0.016,0.037-0.024,0.057C9.933,7.53,9.8,8.262,9.8,9.025c-0.001,0.723,0.121,1.412,0.336,2.061
		c-0.553-0.131-1.125-0.203-1.717-0.204c-4.147-0.004-7.52,3.375-7.524,7.547c-0.005,4.171,3.362,7.566,7.509,7.57
		c2.531,0.001,4.771-1.259,6.133-3.192c-0.012,0.757-1.003,2.345-1.022,3.526c-0.018,1.179,1.016,2.494,1.016,2.494l-0.008,0.284
		c-0.172-0.06-0.356-0.097-0.548-0.099c-0.941,0-1.704,1.712-1.704,1.712s0.76,1.72,1.701,1.721c0.173,0,0.343-0.033,0.5-0.08
		l-0.153,40.661l-1.205,0.001l0.026-2.864l-1.46,0.003l-0.332,0.494l-0.972,0.003l-0.317-0.496l-3.729,0.007l-0.019,2.049
		l3.399-0.005l-0.014,1.796l-2.918,0.005l-0.004,0.678l-0.005,0.789l-0.005,0.678l2.918-0.004l-0.012,1.796l-3.4,0.004L6.248,80.01
		l3.728-0.007l0.332-0.496l0.974-0.001l0.317,0.496l1.46-0.003l0.024-2.865l1.22-0.001l-0.02,5.536h0.911l-0.001,0.341
		c0.046,0.371-0.056,0.441-0.344,0.63c-0.519,0.398-0.85,1.025-0.852,1.731c-0.001,1.204,2.16,2.186,2.16,2.186
		S18.326,86.576,18.327,85.374"/>
</g>
</svg>
